<svg width="18" height="20" viewBox="0 0 18 20" fill="none" xmlns="http://www.w3.org/2000/svg">
<path d="M14.8137 2.47C14.7337 2.47 14.6537 2.45 14.5837 2.41C12.6637 1.42 11.0037 1 9.01365 1C7.03365 1 5.15365 1.47 3.44365 2.41C3.20365 2.54 2.90365 2.45 2.76365 2.21C2.70128 2.09305 2.6873 1.95629 2.7247 1.82913C2.7621 1.70197 2.8479 1.59457 2.96365 1.53C4.82365 0.52 6.86365 0 9.01365 0C11.1437 0 13.0037 0.47 15.0437 1.52C15.2937 1.65 15.3837 1.95 15.2537 2.19C15.2141 2.27336 15.1518 2.34387 15.074 2.3934C14.9962 2.44294 14.9059 2.46949 14.8137 2.47ZM0.503652 7.72C0.411473 7.72086 0.320858 7.69617 0.241858 7.64866C0.162857 7.60116 0.098559 7.5327 0.0560956 7.45088C0.0136321 7.36906 -0.00533705 7.27708 0.00129219 7.18514C0.00792143 7.09319 0.0398899 7.00488 0.0936517 6.93C1.08365 5.53 2.34365 4.43 3.84365 3.66C6.98365 2.04 11.0037 2.03 14.1537 3.65C15.6537 4.42 16.9137 5.51 17.9037 6.9C17.942 6.95374 17.9694 7.01455 17.9841 7.07891C17.9988 7.14328 18.0007 7.20993 17.9895 7.27501C17.9784 7.34009 17.9544 7.40232 17.9191 7.4581C17.8838 7.51388 17.8377 7.56211 17.7837 7.6C17.5537 7.76 17.2437 7.71 17.0837 7.48C16.2079 6.24038 15.0447 5.23156 13.6937 4.54C10.8237 3.07 7.15365 3.07 4.29365 4.55C2.93365 5.25 1.79365 6.25 0.893652 7.51C0.813652 7.65 0.663652 7.72 0.503652 7.72ZM6.75365 19.79C6.68808 19.7908 6.62306 19.7779 6.56278 19.752C6.5025 19.7262 6.4483 19.688 6.40365 19.64C5.53365 18.77 5.06365 18.21 4.39365 17C3.70365 15.77 3.34365 14.27 3.34365 12.66C3.34365 9.69 5.88365 7.27 9.00365 7.27C12.1237 7.27 14.6637 9.69 14.6637 12.66C14.6637 12.94 14.4437 13.16 14.1637 13.16C13.8837 13.16 13.6637 12.94 13.6637 12.66C13.6637 10.24 11.5737 8.27 9.00365 8.27C6.43365 8.27 4.34365 10.24 4.34365 12.66C4.34365 14.1 4.66365 15.43 5.27365 16.51C5.91365 17.66 6.35365 18.15 7.12365 18.93C7.31365 19.13 7.31365 19.44 7.12365 19.64C7.01365 19.74 6.88365 19.79 6.75365 19.79ZM13.9237 17.94C12.7337 17.94 11.6837 17.64 10.8237 17.05C9.33365 16.04 8.44365 14.4 8.44365 12.66C8.44365 12.38 8.66365 12.16 8.94365 12.16C9.22365 12.16 9.44365 12.38 9.44365 12.66C9.44365 14.07 10.1637 15.4 11.3837 16.22C12.0937 16.7 12.9237 16.93 13.9237 16.93C14.1637 16.93 14.5637 16.9 14.9637 16.83C15.2337 16.78 15.4937 16.96 15.5437 17.24C15.5937 17.51 15.4137 17.77 15.1337 17.82C14.5637 17.93 14.0637 17.94 13.9237 17.94ZM11.9137 20C11.8737 20 11.8237 19.99 11.7837 19.98C10.1937 19.54 9.15365 18.95 8.06365 17.88C7.37293 17.198 6.82523 16.385 6.45262 15.4887C6.08001 14.5923 5.88998 13.6307 5.89365 12.66C5.89365 11.04 7.27365 9.72 8.97365 9.72C10.6737 9.72 12.0537 11.04 12.0537 12.66C12.0537 13.73 12.9837 14.6 14.1337 14.6C15.2837 14.6 16.2137 13.73 16.2137 12.66C16.2137 8.89 12.9637 5.83 8.96365 5.83C6.12365 5.83 3.52365 7.41 2.35365 9.86C1.96365 10.67 1.76365 11.62 1.76365 12.66C1.76365 13.44 1.83365 14.67 2.43365 16.27C2.53365 16.53 2.40365 16.82 2.14365 16.91C1.88365 17.01 1.59365 16.87 1.50365 16.62C1.02179 15.3553 0.774417 14.0134 0.773652 12.66C0.773652 11.46 1.00365 10.37 1.45365 9.42C2.78365 6.63 5.73365 4.82 8.96365 4.82C13.5137 4.82 17.2137 8.33 17.2137 12.65C17.2137 14.27 15.8337 15.59 14.1337 15.59C12.4337 15.59 11.0537 14.27 11.0537 12.65C11.0537 11.58 10.1237 10.71 8.97365 10.71C7.82365 10.71 6.89365 11.58 6.89365 12.65C6.89365 14.36 7.55365 15.96 8.76365 17.16C9.71365 18.1 10.6237 18.62 12.0337 19.01C12.3037 19.08 12.4537 19.36 12.3837 19.62C12.3337 19.85 12.1237 20 11.9137 20Z" fill="white"/>
</svg>
